/kaggle/working/opencap-processing/OpenCapData_ab7eb7cf-817d-4035-a30b-ee68773906cb/OpenSimData/Dynamics/Suhasno_1/GRF_resultant_Suhasno_1_Suhasno_1_window_1.mot
version=1
nRows=20
nColumns=19
inDegrees=yes
endheader 
time	ground_force_right_vx	ground_force_right_vy	ground_force_right_vz	ground_force_right_px	ground_force_right_py	ground_force_right_pz	ground_torque_right_x	ground_torque_right_y	ground_torque_right_z	ground_force_left_vx	ground_force_left_vy	ground_force_left_vz	ground_force_left_px	ground_force_left_py	ground_force_left_pz	ground_torque_left_x	ground_torque_left_y	ground_torque_left_z	
          1.00000000	       -150.27010364	        511.18953109	        -45.12536810	          1.52483908	          0.00000000	          0.10447144	          0.00000000	         -1.17215007	          0.00000000	          0.85409291	          1.59511449	         -2.42529075	          1.16531687	          0.00000000	         -0.48341785	          0.00000000	         -0.00000004	          0.00000000	
          1.05000000	        -88.53243682	        564.44950021	        -18.66846141	          1.50196226	          0.00000000	          0.12887282	          0.00000000	          3.71572734	          0.00000000	         20.20214883	         25.76031683	        -36.36444328	          1.13711149	          0.00000000	         -0.41903650	          0.00000000	         -0.00000485	          0.00000000	
          1.10000000	        116.83285354	        411.92363571	        -20.66625830	          1.39993385	          0.00000000	          0.16018964	          0.00000000	          4.78229549	          0.00000000	         27.73266322	         51.62437219	        -78.72881344	          1.11932956	          0.00000000	         -0.35664685	          0.00000000	          0.03233698	          0.00000000	
          1.15000000	        -30.52758958	         26.49720041	        -20.00073708	          1.37815124	          0.00000000	          0.15367933	          0.00000000	         -0.00001408	          0.00000000	         -3.69124205	        118.47910420	       -163.30371349	          1.15673175	          0.00000000	         -0.32190256	          0.00000000	          0.31704910	          0.00000000	
          1.20000000	         53.74846640	        395.41723669	        -50.84755172	          1.42429167	          0.00000000	          0.18659635	          0.00000000	          0.89736387	          0.00000000	         21.47665254	        303.14905737	         64.82938046	          1.17443536	          0.00000000	         -0.30458899	          0.00000000	          8.10143866	          0.00000000	
          1.25000000	         31.17248284	        317.03184769	        -25.22264161	          1.42303609	          0.00000000	          0.18832499	          0.00000000	          0.22796922	          0.00000000	        114.71273312	        349.08791020	         87.24166891	          1.17799281	          0.00000000	         -0.30793695	          0.00000000	          8.91266349	          0.00000000	
          1.30000000	         57.70554669	        331.50938801	        -56.66966293	          1.42563585	          0.00000000	          0.18880971	          0.00000000	         -0.30508083	          0.00000000	         18.79829830	        194.67602466	          8.93887193	          1.19686806	          0.00000000	         -0.31593687	          0.00000000	          3.23293856	          0.00000000	
          1.35000000	          4.84029598	        422.78790646	        -89.08815483	          1.44147392	          0.00000000	          0.19394164	          0.00000000	         -4.81553393	          0.00000000	         21.02068223	         30.80718421	         24.18021568	          1.23557346	          0.00000000	         -0.32174023	          0.00000000	         -0.00948058	          0.00000000	
          1.40000000	         -1.80357994	        904.08881440	        -77.25726700	          1.46720892	          0.00000000	          0.20169245	          0.00000000	        -20.46785291	          0.00000000	         41.31326138	         73.43922596	         11.66212246	          1.23352600	          0.00000000	         -0.33150680	          0.00000000	         -0.31043414	          0.00000000	
          1.45000000	        212.91777131	       1715.46365332	        -26.30062208	          1.48406528	          0.00000000	          0.20912289	          0.00000000	         -0.61409711	          0.00000000	        133.81938996	        163.47885895	         58.40563388	          1.23434365	          0.00000000	         -0.32897521	          0.00000000	         -0.22946647	          0.00000000	
          1.50000000	          0.00000000	         -0.00000000	          0.00000000	          0.00000000	          0.00000000	          0.00000000	          0.00000000	          0.00000000	          0.00000000	        -35.86794642	         45.63499957	        -69.31514659	          1.24731667	          0.00000000	         -0.30089767	          0.00000000	          0.00293412	          0.00000000	
          1.55000000	         -0.00000000	         -0.00000000	          0.00000000	          0.00000000	          0.00000000	          0.00000000	          0.00000000	          0.00000000	          0.00000000	         -5.63396769	          4.35650169	         -6.25812492	          1.31232300	          0.00000000	         -0.21713180	          0.00000000	          0.00063445	          0.00000000	
          1.60000000	         -0.00000000	         -0.00000000	          0.00000000	          0.00000000	          0.00000000	          0.00000000	          0.00000000	          0.00000000	          0.00000000	         -3.81662714	          2.45155968	         -3.56945540	          1.39941763	          0.00000000	         -0.14168838	          0.00000000	         -0.00115032	          0.00000000	
          1.65000000	         -0.00000000	         -0.00000000	          0.00000000	          0.00000000	          0.00000000	          0.00000000	          0.00000000	          0.00000000	          0.00000000	        -15.19443362	          9.87771965	        -12.19670212	          1.47830407	          0.00000000	         -0.08856783	          0.00000000	         -0.02052505	          0.00000000	
          1.70000000	          0.00000000	         -0.00000000	          0.00000000	          0.00000000	          0.00000000	          0.00000000	          0.00000000	          0.00000000	          0.00000000	       -190.08095140	        100.96377134	        -70.37520420	          1.56200017	          0.00000000	         -0.04520761	          0.00000000	         -0.07008091	          0.00000000	
          1.75000000	          0.00000000	         -0.00000000	          0.00000000	          0.00000000	          0.00000000	          0.00000000	          0.00000000	          0.00000000	          0.00000000	       -116.94011309	         62.03670998	        -27.38270992	          1.65991197	          0.00000000	         -0.01287009	          0.00000000	         -0.00535688	          0.00000000	
          1.80000000	         -0.00000000	          0.00000000	         -0.00000000	          0.00000000	          0.00000000	          0.00000000	          0.00000000	          0.00000000	          0.00000000	       -103.36956413	         66.68593559	        -57.56036831	          1.73906900	          0.00000000	          0.03663849	          0.00000000	         -0.04722066	          0.00000000	
          1.85000000	         -0.00000000	          0.00000000	          0.00000000	          0.00000000	          0.00000000	          0.00000000	          0.00000000	          0.00000000	          0.00000000	        -66.37464025	         71.03276525	       -109.08904250	          1.79782806	          0.00000000	          0.10569062	          0.00000000	         -0.03325862	          0.00000000	
          1.90000000	         -0.00000000	          0.00000000	          0.00000000	          0.00000000	          0.00000000	          0.00000000	          0.00000000	          0.00000000	          0.00000000	        -46.76340836	         77.27109532	       -104.50320009	          1.83622746	          0.00000000	          0.17869673	          0.00000000	          0.02580890	          0.00000000	
          1.95000000	         -0.00000000	         -0.00000000	          0.00000000	          0.00000000	          0.00000000	          0.00000000	          0.00000000	          0.00000000	          0.00000000	       -119.98892678	        870.25601072	       -412.30201650	          1.83695182	          0.00000000	          0.22459903	          0.00000000	         -3.76283334	          0.00000000	
